<?xml version="1.0" standalone="no"?>
<!DOCTYPE svg PUBLIC "-//W3C//DTD SVG 20010904//EN"
 "http://www.w3.org/TR/2001/REC-SVG-20010904/DTD/svg10.dtd">
<svg version="1.0" xmlns="http://www.w3.org/2000/svg"
 width="512.000000pt" height="512.000000pt" viewBox="0 0 512.000000 512.000000"
 preserveAspectRatio="xMidYMid meet">
<metadata>
Created by potrace 1.11, written by Peter Selinger 2001-2013
</metadata>
<g transform="translate(0.000000,512.000000) scale(0.100000,-0.100000)"
fill="#000000" stroke="none">
<path d="M363 5041 c-168 -48 -302 -190 -348 -366 -13 -52 -15 -298 -15 -2082
l0 -2023 215 0 215 0 0 -255 0 -255 1755 0 1755 0 0 1087 0 1087 554 556 c602
604 595 596 619 733 13 79 1 160 -37 243 -32 70 -161 199 -236 236 -72 35
-168 51 -243 38 -122 -19 -151 -41 -414 -302 l-243 -242 0 282 0 282 28 6 c83
19 112 29 165 56 193 103 303 339 252 544 -25 99 -67 175 -133 242 -69 70
-131 107 -220 133 -65 18 -126 19 -1837 18 -1663 0 -1774 -1 -1832 -18z m287
-162 c120 -57 192 -166 198 -304 5 -106 -21 -179 -91 -252 -70 -75 -138 -106
-243 -111 l-84 -5 0 -1743 0 -1744 -140 0 -140 0 0 1948 c0 2108 -3 1990 53
2079 36 56 111 119 171 143 74 29 201 24 276 -11z m3374 10 c77 -28 148 -96
188 -177 30 -60 33 -75 33 -152 -1 -70 -5 -94 -27 -140 -38 -81 -89 -134 -166
-172 l-67 -33 -1562 -3 -1563 -2 36 46 c47 63 69 108 88 181 39 151 1 328 -95
438 l-31 35 1556 0 c1544 0 1556 0 1610 -21z m-234 -1186 l0 -358 -157 -157
-158 -158 -1277 0 -1278 0 0 -75 0 -75 1202 0 1203 0 -150 -150 -150 -150
-1052 0 -1053 0 0 -75 0 -75 970 0 c534 0 970 -3 970 -7 0 -4 -66 -74 -147
-155 l-148 -148 -822 0 -823 0 0 -75 0 -75 746 0 c687 0 745 -1 733 -16 -8 -9
-32 -78 -54 -153 l-41 -136 -692 -3 -692 -2 0 -75 0 -75 669 0 669 0 -43 -144
c-23 -79 -45 -149 -49 -155 -5 -8 -180 -11 -627 -11 l-619 0 0 -70 0 -70 1305
0 1305 0 0 70 0 70 -437 0 c-240 0 -434 2 -431 5 3 3 83 28 179 56 l174 51
100 99 100 99 155 2 155 3 3 72 3 72 -81 3 -80 3 210 210 210 210 0 -938 0
-937 -1605 0 -1605 0 0 1925 0 1925 1605 0 1605 0 0 -357z m954 181 c57 -20
155 -107 194 -173 23 -40 27 -57 27 -126 0 -91 -11 -116 -77 -189 l-43 -47
-210 210 -209 211 44 45 c75 77 176 102 274 69z m-211 -432 l207 -207 -880
-880 -880 -880 -210 210 -210 210 877 877 c483 483 880 878 883 878 3 0 98
-93 213 -208z m-1868 -1862 c93 -93 167 -171 165 -174 -7 -6 -482 -147 -485
-144 -4 5 139 488 145 488 3 0 81 -76 175 -170z"/>
<path d="M2770 4735 l0 -76 93 3 92 3 3 73 3 72 -96 0 -95 0 0 -75z"/>
<path d="M3170 4735 l0 -75 375 0 c258 0 382 -4 399 -11 32 -15 59 -71 52
-107 -6 -25 -1 -30 53 -59 33 -18 62 -33 64 -33 12 0 30 67 29 114 -1 98 -53
178 -147 222 -50 24 -51 24 -437 24 l-388 0 0 -75z"/>
<path d="M920 3415 l0 -75 1305 0 1305 0 0 75 0 75 -1305 0 -1305 0 0 -75z"/>
<path d="M920 725 l0 -75 1305 0 1306 0 -3 73 -3 72 -1302 3 -1303 2 0 -75z"/>
<path d="M4342 3387 l-52 -53 45 -44 45 -44 -152 -153 -153 -153 53 -52 52
-53 205 205 205 205 -98 98 -98 97 -52 -53z"/>
<path d="M3935 2800 l-50 -50 53 -53 52 -52 50 50 50 50 -53 53 -53 52 -49
-50z"/>
</g>
</svg>
